<svg width="24" height="24" viewBox="0 0 24 24" fill="none" xmlns="http://www.w3.org/2000/svg">
<path d="M18.7372 8.71139C19.1301 8.5804 19.3425 8.15566 19.2115 7.76271C19.0805 7.36975 18.6558 7.15738 18.2628 7.28837C17.5622 7.52191 16.7002 8.02896 15.9497 8.5237C15.1823 9.02956 14.4637 9.56841 14.0315 9.91423C13.708 10.173 13.6556 10.645 13.9143 10.9684C14.1731 11.2918 14.6451 11.3443 14.9685 11.0855C15.3696 10.7647 16.051 10.2535 16.7753 9.77606C17.5165 9.28746 18.2378 8.87785 18.7372 8.71139Z" fill="#5669FF"/>
<path d="M19.2115 11.7627C19.3425 12.1557 19.1301 12.5804 18.7372 12.7114C18.2378 12.8778 17.5165 13.2875 16.7753 13.7761C16.051 14.2535 15.3696 14.7647 14.9685 15.0855C14.6451 15.3443 14.1731 15.2918 13.9143 14.9684C13.6556 14.645 13.708 14.173 14.0315 13.9142C14.4637 13.5684 15.1823 13.0296 15.9497 12.5237C16.7002 12.029 17.5622 11.5219 18.2628 11.2884C18.6558 11.1574 19.0805 11.3698 19.2115 11.7627Z" fill="#5669FF"/>
<path fill-rule="evenodd" clip-rule="evenodd" d="M2 4.11996V15.6071C2 16.1157 2.38055 16.5443 2.88335 16.6208C3.95324 16.7836 5.76524 17.1132 7 17.6249C8.49481 18.2442 10.3004 19.6097 11.281 20.4009C11.6908 20.7316 12.2898 20.7124 12.6787 20.3573C13.5502 19.5615 15.1093 18.2364 16.4444 17.6249C17.5827 17.1035 19.8405 16.7617 21.099 16.6029C21.6101 16.5384 22 16.1067 22 15.5916V4.10088C22 3.51068 21.4927 3.05097 20.9075 3.12748C19.6223 3.29552 17.5271 3.62896 16.4444 4.12485C15.1093 4.73639 13.5502 6.06153 12.6787 6.8573C12.2898 7.21243 11.6908 7.23162 11.281 6.90091C10.3004 6.10971 8.49481 4.74424 7 4.12485C5.84824 3.64761 4.19424 3.32874 3.10876 3.15591C2.51916 3.06204 2 3.52294 2 4.11996ZM7.57419 16.2391C6.31224 15.7162 4.61257 15.3817 3.5 15.1996V4.7438C4.48324 4.92157 5.63014 5.18091 6.42581 5.5106C7.6979 6.0377 9.3525 7.27225 10.339 8.06827C10.6151 8.29104 10.9256 8.44785 11.25 8.53958V18.4761C10.2156 17.7007 8.83091 16.7598 7.57419 16.2391ZM11.9303 18.9999C11.9327 19.0018 11.9351 19.0037 11.9376 19.0057C11.9397 19.0037 11.9419 19.0018 11.944 18.9999H11.9303ZM12.75 18.3075C13.6355 17.5762 14.7596 16.7467 15.8198 16.2611C16.5605 15.9219 17.5582 15.6795 18.4363 15.5063C19.1682 15.3619 19.9036 15.2495 20.5 15.1685V4.69813C19.9991 4.77139 19.4401 4.86332 18.8983 4.97326C18.096 5.13608 17.4445 5.31666 17.0691 5.4886C15.9716 5.99131 14.5669 7.16438 13.6902 7.96496C13.4123 8.21869 13.0907 8.40117 12.75 8.51135V18.3075Z" fill="#5669FF"/>
</svg>
